<?xml version="1.0" standalone="no"?>
<!DOCTYPE svg PUBLIC "-//W3C//DTD SVG 20010904//EN"
 "http://www.w3.org/TR/2001/REC-SVG-20010904/DTD/svg10.dtd">
<svg version="1.0" xmlns="http://www.w3.org/2000/svg"
 width="512.000000pt" height="512.000000pt" viewBox="0 0 512.000000 512.000000"
 preserveAspectRatio="xMidYMid meet">
<metadata>
Created by potrace 1.14, written by Peter Selinger 2001-2017
</metadata>
<g transform="translate(0.000000,512.000000) scale(0.100000,-0.100000)"
fill="#000000" stroke="none">
<path d="M2515 3985 c-5 -2 -22 -6 -37 -9 -15 -3 -33 -12 -40 -19 -7 -6 -36
-32 -63 -56 -28 -25 -97 -88 -155 -141 -58 -54 -118 -109 -135 -124 -16 -15
-48 -44 -70 -64 -259 -237 -458 -419 -485 -442 -9 -8 -64 -58 -120 -110 -57
-52 -108 -99 -114 -105 -73 -65 -244 -222 -291 -266 -33 -31 -118 -109 -190
-174 -126 -115 -155 -142 -314 -290 -91 -85 -228 -214 -252 -237 -33 -32 -52
-83 -57 -153 -12 -195 122 -418 313 -516 39 -20 219 -92 400 -159 493 -182
1718 -641 1725 -645 9 -5 -54 -67 1130 1124 1050 1057 1018 1023 1011 1087 0
6 -22 19 -48 29 -67 25 -70 28 -72 92 -3 89 -9 206 -16 332 -6 113 -6 114 20
141 19 19 27 40 28 66 l2 38 -170 48 c-93 27 -235 67 -315 89 -80 22 -217 61
-305 85 -88 25 -182 51 -210 59 -215 59 -769 222 -895 263 -138 45 -246 67
-275 57z"/>
</g>
</svg>
